<?xml version="1.0" encoding="UTF-8"?>
<svg xmlns="http://www.w3.org/2000/svg" viewBox="0 0 242.75 328.74">
  <defs>
    <style>
      .cls-1, .cls-2, .cls-3 {
        stroke-width: 0px;
      }

      .cls-1, .cls-3 {
        fill: #231f20;
      }

      .cls-4 {
        stroke-linecap: round;
        stroke-linejoin: round;
        stroke-width: .71px;
      }

      .cls-4, .cls-5 {
        fill: none;
        stroke: #231f20;
      }

      .cls-2 {
        fill: #fff;
      }

      .cls-3 {
        fill-rule: evenodd;
      }

      .cls-5 {
        stroke-miterlimit: 10;
        stroke-width: .71px;
      }
    </style>
  </defs>
  <g id="Option_4" data-name="Option 4">
    <path class="cls-4" d="M74.85,74.37c0,18.61-15.08,33.69-33.69,33.69S7.48,92.97,7.48,74.37s15.08-33.69,33.69-33.69,33.69,15.08,33.69,33.69Z"/>
  </g>
  <g id="_3.5_stars" data-name="3.5 stars">
    <g>
      <g>
        <g>
          <path class="cls-3" d="M23.36,90.78v-2.38h1.12v5.95h-1.12v-2.65h-1.28v2.65h-1.12v-5.95h1.12v2.38h1.28Z"/>
          <path class="cls-3" d="M25.32,94.34v-5.95h2.92v.92h-1.8v1.47h1.66v.92h-1.66v1.74h1.86v.92h-2.98Z"/>
          <path class="cls-3" d="M28.72,94.34l1.48-5.95h1.47l1.45,5.95h-1.18l-.3-1.32h-1.53l-.3,1.32h-1.1ZM30.87,89.54h-.01l-.51,2.57h1.07l-.54-2.57Z"/>
          <path class="cls-3" d="M33.66,94.34v-5.95h1.12v4.96h1.67v.99h-2.79Z"/>
          <path class="cls-3" d="M39.77,88.39v.99h-1.25v4.96h-1.12v-4.96h-1.25v-.99h3.61Z"/>
          <path class="cls-3" d="M42.71,90.78v-2.38h1.12v5.95h-1.12v-2.65h-1.28v2.65h-1.12v-5.95h1.12v2.38h1.28Z"/>
          <path class="cls-3" d="M47.23,94.44c-1.39,0-1.64-.91-1.58-1.94h1.12c0,.57.02,1.05.64,1.05.38,0,.56-.27.56-.68,0-1.07-2.25-1.14-2.25-2.91,0-.93.4-1.67,1.76-1.67,1.09,0,1.63.54,1.56,1.79h-1.09c0-.44-.07-.9-.52-.9-.36,0-.58.22-.58.63,0,1.13,2.25,1.03,2.25,2.9,0,1.54-1.02,1.72-1.87,1.72Z"/>
          <path class="cls-3" d="M53.12,88.39v.99h-1.24v4.96h-1.12v-4.96h-1.24v-.99h3.61Z"/>
          <path class="cls-3" d="M52.87,94.34l1.48-5.95h1.47l1.45,5.95h-1.18l-.3-1.32h-1.53l-.3,1.32h-1.1ZM55.02,89.54h-.01l-.51,2.57h1.07l-.54-2.57Z"/>
          <path class="cls-3" d="M58.91,94.34h-1.12v-5.95h2.07c.76,0,1.25.54,1.25,1.56,0,.76-.27,1.33-.99,1.46v.02c.24.03.97.1.97,1.17,0,.38.02,1.5.13,1.75h-1.1c-.15-.36-.12-.77-.12-1.15,0-.71.06-1.31-.8-1.31h-.29v2.46ZM58.91,90.96h.5c.44,0,.57-.49.57-.87,0-.57-.21-.78-.57-.78h-.5v1.66Z"/>
          <path class="cls-3" d="M30.83,102.26h-1.12v-5.95h2.07c.76,0,1.25.54,1.25,1.56,0,.76-.27,1.33-.99,1.46v.02c.25.03.97.1.97,1.17,0,.38.02,1.5.13,1.75h-1.1c-.15-.36-.12-.77-.12-1.15,0-.71.06-1.31-.8-1.31h-.29v2.46ZM30.83,98.88h.5c.45,0,.57-.49.57-.87,0-.57-.21-.78-.57-.78h-.5v1.66Z"/>
          <path class="cls-3" d="M33.54,102.26l1.48-5.95h1.47l1.45,5.95h-1.18l-.29-1.32h-1.53l-.3,1.32h-1.1ZM35.7,97.46h-.01l-.51,2.57h1.07l-.54-2.57Z"/>
          <path class="cls-3" d="M41.32,96.31v.99h-1.25v4.96h-1.12v-4.96h-1.25v-.99h3.61Z"/>
          <path class="cls-3" d="M41.84,102.26v-5.95h1.12v5.95h-1.12Z"/>
          <path class="cls-3" d="M43.79,102.26v-5.95h1.51l1.42,4.12h.01v-4.12h1.04v5.95h-1.47l-1.46-4.35h-.01v4.35h-1.05Z"/>
          <path class="cls-3" d="M51.04,98.14c0-.55-.08-1.04-.67-1.04-.7,0-.7,1.05-.7,2.2,0,1.86.16,2.19.8,2.19.19,0,.39-.05.56-.12v-1.32h-.61v-.92h1.73v3.02c-.3.07-1.07.2-1.51.2-1.88,0-2.1-.86-2.1-3.12,0-1.5.07-3.02,1.9-3.02,1.1,0,1.78.68,1.71,1.93h-1.11Z"/>
        </g>
        <g>
          <path class="cls-3" d="M34.94,77.99c.02.43.11,1.81,1.4,1.81.87,0,1.4-.8,1.4-1.85,0-2-1.54-2-2.68-2v-2.28c1.09-.04,2.69-.08,2.69-2.02,0-1.07-.64-1.62-1.34-1.62s-1.32.56-1.32,1.69h-2.38c.05-.6.09-1.46.64-2.29.71-1.09,1.87-1.5,3.02-1.5,2.77,0,3.66,2.22,3.66,3.7,0,2.28-1.6,2.9-2.09,3.07.34.14.79.31,1.29.84.76.8.89,1.79.89,2.43,0,2.29-1.68,4.01-3.94,4.01-.78,0-1.91-.21-2.61-.91-.97-.99-1-2.53-1-3.07h2.37Z"/>
          <path class="cls-3" d="M41.02,79.1h1.98v2.59h-1.98v-2.59Z"/>
          <path class="cls-3" d="M45.51,79.07c-.01.24.15,1.19,1,1.19.66,0,1.25-.59,1.25-1.99,0-1.02-.32-1.9-1.13-1.9s-1.02.82-1.08,1.06l-1.76-.06.19-6.28h5.14v1.73h-3.54l-.11,2.63c.27-.29.67-.76,1.61-.76,1.36,0,2.5,1.25,2.5,3.38,0,1.81-.85,3.85-3.03,3.85-.89,0-1.79-.29-2.37-1.16-.42-.64-.46-1.29-.47-1.69h1.8Z"/>
        </g>
      </g>
      <path class="cls-1" d="M55.2,62.34l-5.35-.85,4.83-2.46-.85-5.35,3.83,3.83,4.83-2.46h0s.99-.99.99-.99c-5.52-6.06-13.47-9.86-22.3-9.86-16.66,0-30.16,13.5-30.16,30.16,0,3.88.74,7.59,2.07,10.99h21.71c-3.79-2.2-6.34-6.3-6.34-10.99,0-7.03,5.7-12.72,12.72-12.72,4.02,0,7.6,1.87,9.93,4.79l4.09-4.1h0Z"/>
      <g>
        <g>
          <path class="cls-2" d="M36.79,60.11c-.07,0-.15-.02-.21-.07-.12-.09-.18-.25-.13-.4l1.59-4.91-4.17-3.04c-.12-.09-.18-.25-.13-.4.05-.15.18-.25.34-.25h5.16l1.59-4.91c.05-.15.18-.25.34-.25s.29.1.34.25l1.6,4.91h5.16c.15,0,.29.1.34.25.05.15,0,.31-.13.4l-4.17,3.03,1.59,4.91c.05.15,0,.31-.13.4-.06.05-.13.07-.21.07s-.15-.02-.21-.07l-4.18-3.03-4.17,3.03c-.06.04-.13.07-.21.07Z"/>
          <path class="cls-1" d="M41.17,46.27l1.67,5.15h5.42l-4.38,3.19,1.67,5.15-4.38-3.18-4.38,3.18,1.67-5.15-4.38-3.19h5.42l1.67-5.15M41.17,45.56h0c-.31,0-.58.2-.67.49l-1.51,4.66h-4.9c-.31,0-.58.2-.67.49-.09.29,0,.61.26.79l3.96,2.88-1.51,4.66c-.09.29,0,.61.26.79.12.09.27.14.42.14s.29-.05.42-.14l3.96-2.88,3.97,2.88c.12.09.27.14.42.14s.29-.05.42-.14c.25-.18.35-.5.26-.79l-1.52-4.66,3.97-2.88c.25-.18.35-.5.26-.79-.09-.29-.37-.49-.67-.49h-4.9l-1.52-4.66c-.09-.29-.37-.49-.67-.49h0Z"/>
        </g>
        <g>
          <path class="cls-2" d="M26.34,68.04c-.13,0-.25-.07-.32-.19l-2.34-4.6-5.1.81s-.04,0-.06,0c-.13,0-.25-.07-.32-.19-.07-.14-.04-.3.06-.41l3.65-3.65-2.34-4.6c-.07-.14-.04-.3.06-.41.07-.07.16-.1.25-.1.05,0,.11.01.16.04l4.59,2.34,3.65-3.65c.07-.07.16-.1.25-.1.05,0,.11.01.16.04.14.07.21.22.19.37l-.81,5.1,4.6,2.34c.14.07.21.22.19.37-.02.15-.14.27-.29.29l-5.09.81-.81,5.1c-.02.15-.14.27-.29.29-.02,0-.04,0-.06,0Z"/>
          <path class="cls-1" d="M28.56,53.68l-.85,5.35,4.83,2.46-5.35.85-.85,5.35-2.46-4.83-5.35.85,3.83-3.83-2.46-4.83,4.82,2.46,3.83-3.83M28.56,52.97c-.18,0-.37.07-.5.21l-3.47,3.47-4.37-2.22c-.1-.05-.21-.08-.32-.08-.18,0-.37.07-.5.21-.22.22-.27.55-.13.82l2.22,4.37-3.47,3.47c-.22.22-.27.55-.13.82.12.24.37.39.63.39.04,0,.07,0,.11,0l4.84-.77,2.22,4.37c.12.24.37.39.63.39.04,0,.07,0,.11,0,.3-.05.54-.29.59-.59l.77-4.84,4.84-.77c.3-.05.54-.29.59-.59.05-.3-.1-.6-.38-.74l-4.37-2.22.77-4.84c.05-.3-.1-.6-.38-.74-.1-.05-.21-.08-.32-.08h0Z"/>
        </g>
        <g>
          <path class="cls-2" d="M17.7,83.14s-.07,0-.11-.02c-.15-.05-.25-.18-.25-.34v-5.16s-4.91-1.59-4.91-1.59c-.15-.05-.25-.18-.25-.34s.1-.29.25-.34l4.91-1.6v-5.16c0-.15.1-.29.25-.34.04-.01.07-.02.11-.02.11,0,.22.05.29.15l3.03,4.17,4.91-1.59s.07-.02.11-.02c.11,0,.22.05.29.15.09.12.09.29,0,.42l-3.03,4.18,3.03,4.17c.09.12.09.29,0,.42-.07.09-.18.15-.29.15-.04,0-.07,0-.11-.02l-4.91-1.6-3.03,4.17c-.07.09-.18.15-.29.15Z"/>
          <path class="cls-1" d="M17.7,68.6l3.18,4.38,5.15-1.67-3.19,4.38,3.18,4.38-5.15-1.68-3.18,4.38v-5.42s-5.15-1.67-5.15-1.67l5.15-1.67v-5.42M17.7,67.89c-.07,0-.15.01-.22.04-.29.09-.49.37-.49.67v4.9l-4.66,1.52c-.29.09-.49.37-.49.67s.2.58.49.67l4.66,1.51v4.9c0,.31.2.58.49.67.07.02.15.04.22.04.22,0,.44-.11.57-.29l2.88-3.97,4.66,1.52c.07.02.15.04.22.04.22,0,.44-.11.57-.29.18-.25.18-.59,0-.83l-2.88-3.97,2.88-3.97c.18-.25.18-.58,0-.83-.14-.19-.35-.29-.57-.29-.07,0-.15.01-.22.04l-4.66,1.51-2.88-3.97c-.14-.19-.35-.29-.57-.29h0Z"/>
        </g>
        <path class="cls-5" d="M41.17,44.2c-16.66,0-30.16,13.5-30.16,30.16,0,3.88.74,7.59,2.07,10.99h21.71c-3.79-2.2-6.34-6.3-6.34-10.99,0-7.03,5.7-12.72,12.72-12.72s12.72,5.7,12.72,12.72c0,4.7-2.55,8.79-6.34,10.99h21.71c1.33-3.41,2.08-7.11,2.08-10.99,0-16.66-13.5-30.16-30.16-30.16Z"/>
        <g>
          <path class="cls-2" d="M64.69,83.14c-.11,0-.22-.05-.29-.15l-3.03-4.17-4.9,1.59s-.07.02-.11.02c-.11,0-.22-.05-.29-.15-.09-.12-.09-.29,0-.42l3.03-4.17-3.03-4.18c-.09-.12-.09-.29,0-.42.07-.09.18-.15.29-.15.04,0,.07,0,.11.02l4.91,1.59,3.03-4.17c.07-.09.18-.15.29-.15.04,0,.07,0,.11.02.15.05.25.18.25.34v5.16s4.91,1.59,4.91,1.59c.15.05.25.18.25.34s-.1.29-.25.34l-4.9,1.6v5.16c0,.15-.1.29-.25.34-.04.01-.07.02-.11.02Z"/>
          <path class="cls-1" d="M64.69,68.6v5.42s5.15,1.67,5.15,1.67l-5.15,1.67v5.42s-3.19-4.38-3.19-4.38l-5.15,1.67,3.18-4.38-3.18-4.38,5.15,1.67,3.18-4.38M64.69,67.9c-.22,0-.44.11-.57.29l-2.88,3.96-4.66-1.52c-.07-.02-.15-.04-.22-.04-.22,0-.44.11-.57.29-.18.25-.18.59,0,.83l2.88,3.97-2.88,3.97c-.18.25-.18.58,0,.83.14.19.35.29.57.29.07,0,.15-.01.22-.04l4.66-1.52,2.88,3.97c.14.19.35.29.57.29.07,0,.15-.01.22-.04.29-.09.49-.37.49-.67v-4.9s4.66-1.52,4.66-1.52c.29-.09.49-.37.49-.67s-.2-.58-.49-.67l-4.66-1.51v-4.9c0-.31-.2-.58-.49-.67-.07-.02-.15-.04-.22-.04h0Z"/>
        </g>
        <g>
          <path class="cls-2" d="M55.99,68.04c-.15-.02-.27-.14-.29-.29l-.81-5.09-5.1-.81c-.15-.02-.27-.14-.29-.29-.02-.15.05-.3.19-.37l4.6-2.34-.81-5.09c-.02-.15.05-.3.19-.37.05-.03.11-.04.16-.04.09,0,.18.04.25.1l3.65,3.65,4.6-2.34c.05-.03.11-.04.16-.04.09,0,.18.04.25.1.11.11.13.28.06.41l-2.34,4.6,3.65,3.65c.11.11.13.28.06.41-.06.12-.18.19-.32.19-.02,0-.04,0-.06,0l-5.1-.81-2.34,4.6c-.06.12-.18.19-.32.19-.02,0-.04,0-.06,0Z"/>
          <path class="cls-1" d="M53.82,53.68l3.83,3.83,4.83-2.46-2.46,4.83,3.83,3.83-5.35-.85-2.46,4.83-.85-5.35-5.35-.85,4.83-2.46-.85-5.35M53.82,52.97c-.11,0-.22.03-.32.08-.27.14-.43.44-.38.74l.77,4.84-4.37,2.22c-.27.14-.43.44-.38.74.05.3.29.54.59.59l4.84.77.76,4.84c.05.3.29.54.59.59.04,0,.08,0,.11,0,.26,0,.51-.15.63-.39l2.22-4.37,4.84.77s.08,0,.11,0c.26,0,.51-.15.63-.39.14-.27.09-.61-.13-.82l-3.47-3.46,2.23-4.37c.14-.27.09-.61-.13-.82-.14-.14-.32-.21-.5-.21-.11,0-.22.03-.32.08l-4.37,2.22-3.47-3.46c-.14-.14-.32-.21-.5-.21h0Z"/>
        </g>
      </g>
    </g>
  </g>
</svg>